<svg xmlns="http://www.w3.org/2000/svg" xmlns:xlink="http://www.w3.org/1999/xlink" width="500" zoomAndPan="magnify" viewBox="0 0 375 374.999991" height="500" preserveAspectRatio="xMidYMid meet" version="1.0"><defs><g/><clipPath id="70eb12914d"><path d="M 79 193 L 105 193 L 105 202.027344 L 79 202.027344 Z M 79 193 " clip-rule="nonzero"/></clipPath><clipPath id="46755c80cc"><path d="M 77.617188 192.277344 L 82 192.277344 L 82 195 L 77.617188 195 Z M 77.617188 192.277344 " clip-rule="nonzero"/></clipPath><clipPath id="6fd760c88c"><path d="M 103 192.277344 L 106.867188 192.277344 L 106.867188 195 L 103 195 Z M 103 192.277344 " clip-rule="nonzero"/></clipPath></defs><rect x="-37.5" width="450" fill="#ffffff" y="-37.499999" height="449.999989" fill-opacity="1"/><rect x="-37.5" width="450" fill="#ffffff" y="-37.499999" height="449.999989" fill-opacity="1"/><g clip-path="url(#70eb12914d)"><path fill="#000000" d="M 104.546875 193.65625 C 102.847656 195.496094 100.910156 196.855469 98.8125 197.753906 C 96.71875 198.65625 94.488281 199.097656 92.25 199.105469 C 90.007812 199.097656 87.777344 198.660156 85.683594 197.753906 C 83.59375 196.851562 81.652344 195.496094 79.949219 193.660156 L 79.949219 193.65625 C 79.882812 193.582031 79.808594 193.574219 79.722656 193.625 C 79.636719 193.679688 79.613281 193.75 79.644531 193.847656 C 80.492188 196.320312 82.351562 198.441406 84.613281 199.859375 C 86.878906 201.289062 89.574219 202.023438 92.25 202.027344 C 94.925781 202.03125 97.621094 201.289062 99.886719 199.859375 C 102.148438 198.441406 104.007812 196.320312 104.855469 193.847656 C 104.886719 193.75 104.863281 193.675781 104.777344 193.625 C 104.691406 193.574219 104.617188 193.582031 104.550781 193.65625 Z M 104.546875 193.65625 " fill-opacity="1" fill-rule="nonzero"/></g><g clip-path="url(#46755c80cc)"><path fill="#000000" d="M 80.746094 193.152344 C 80.914062 193.113281 81.089844 193.085938 81.277344 193.015625 L 81.300781 193.003906 C 81.378906 192.976562 81.417969 192.921875 81.425781 192.839844 C 81.433594 192.757812 81.402344 192.695312 81.335938 192.65625 C 81.15625 192.550781 80.972656 192.464844 80.777344 192.402344 C 80.582031 192.363281 80.378906 192.296875 80.164062 192.304688 C 79.746094 192.277344 79.300781 192.394531 78.90625 192.597656 C 78.507812 192.8125 78.191406 193.121094 77.96875 193.523438 C 77.753906 193.90625 77.640625 194.328125 77.6875 194.777344 C 77.699219 194.855469 77.738281 194.910156 77.8125 194.9375 C 77.886719 194.960938 77.953125 194.949219 78.007812 194.890625 L 78.035156 194.863281 C 78.289062 194.597656 78.515625 194.34375 78.746094 194.144531 C 78.964844 193.945312 79.199219 193.773438 79.453125 193.632812 C 79.703125 193.5 79.964844 193.375 80.269531 193.289062 C 80.417969 193.230469 80.582031 193.210938 80.746094 193.152344 Z M 80.746094 193.152344 " fill-opacity="1" fill-rule="nonzero"/></g><g clip-path="url(#6fd760c88c)"><path fill="#000000" d="M 106.511719 193.523438 C 106.285156 193.121094 105.972656 192.8125 105.570312 192.597656 C 105.175781 192.394531 104.734375 192.277344 104.3125 192.304688 C 104.101562 192.296875 103.898438 192.363281 103.699219 192.402344 C 103.507812 192.464844 103.320312 192.550781 103.144531 192.65625 C 103.074219 192.695312 103.042969 192.757812 103.050781 192.839844 C 103.058594 192.921875 103.101562 192.976562 103.179688 193.003906 L 103.203125 193.015625 C 103.390625 193.085938 103.566406 193.113281 103.730469 193.152344 C 103.898438 193.210938 104.058594 193.230469 104.207031 193.289062 C 104.511719 193.375 104.773438 193.5 105.023438 193.632812 C 105.277344 193.773438 105.515625 193.945312 105.730469 194.144531 C 105.964844 194.34375 106.191406 194.597656 106.441406 194.863281 L 106.46875 194.890625 C 106.523438 194.949219 106.589844 194.960938 106.664062 194.9375 C 106.738281 194.910156 106.78125 194.855469 106.789062 194.777344 C 106.839844 194.328125 106.726562 193.90625 106.511719 193.523438 Z M 106.511719 193.523438 " fill-opacity="1" fill-rule="nonzero"/></g><g fill="#ed2408" fill-opacity="1"><g transform="translate(46.592476, 186.91237)"><g><path d="M 21.03125 -5.796875 L 8.46875 -5.796875 L 6.0625 0 L -0.34375 0 L 11.71875 -27.0625 L 17.890625 -27.0625 L 30 0 L 23.421875 0 Z M 19.0625 -10.546875 L 14.765625 -20.90625 L 10.46875 -10.546875 Z M 19.0625 -10.546875 "/></g></g></g><g fill="#ed2408" fill-opacity="1"><g transform="translate(78.018043, 186.91237)"><g><path d="M 2.78125 -20.796875 L 8.8125 -20.796875 L 8.8125 0 L 2.78125 0 Z M 5.796875 -23.703125 C 4.679688 -23.703125 3.773438 -24.019531 3.078125 -24.65625 C 2.390625 -25.300781 2.046875 -26.101562 2.046875 -27.0625 C 2.046875 -28.007812 2.390625 -28.804688 3.078125 -29.453125 C 3.773438 -30.097656 4.679688 -30.421875 5.796875 -30.421875 C 6.898438 -30.421875 7.800781 -30.109375 8.5 -29.484375 C 9.195312 -28.867188 9.546875 -28.097656 9.546875 -27.171875 C 9.546875 -26.171875 9.195312 -25.34375 8.5 -24.6875 C 7.800781 -24.03125 6.898438 -23.703125 5.796875 -23.703125 Z M 5.796875 -23.703125 "/></g></g></g><g fill="#000000" fill-opacity="1"><g transform="translate(91.472166, 186.91237)"><g><path d="M 2.78125 -20.796875 L 8.8125 -20.796875 L 8.8125 0 L 2.78125 0 Z M 5.796875 -23.703125 C 4.679688 -23.703125 3.773438 -24.019531 3.078125 -24.65625 C 2.390625 -25.300781 2.046875 -26.101562 2.046875 -27.0625 C 2.046875 -28.007812 2.390625 -28.804688 3.078125 -29.453125 C 3.773438 -30.097656 4.679688 -30.421875 5.796875 -30.421875 C 6.898438 -30.421875 7.800781 -30.109375 8.5 -29.484375 C 9.195312 -28.867188 9.546875 -28.097656 9.546875 -27.171875 C 9.546875 -26.171875 9.195312 -25.34375 8.5 -24.6875 C 7.800781 -24.03125 6.898438 -23.703125 5.796875 -23.703125 Z M 5.796875 -23.703125 "/></g></g></g><g fill="#000000" fill-opacity="1"><g transform="translate(104.924061, 186.91237)"><g><path d="M 15.421875 -21.109375 C 18.003906 -21.109375 20.085938 -20.332031 21.671875 -18.78125 C 23.253906 -17.238281 24.046875 -14.945312 24.046875 -11.90625 L 24.046875 0 L 18.015625 0 L 18.015625 -10.984375 C 18.015625 -12.628906 17.648438 -13.859375 16.921875 -14.671875 C 16.203125 -15.484375 15.160156 -15.890625 13.796875 -15.890625 C 12.273438 -15.890625 11.0625 -15.414062 10.15625 -14.46875 C 9.257812 -13.53125 8.8125 -12.132812 8.8125 -10.28125 L 8.8125 0 L 2.78125 0 L 2.78125 -20.796875 L 8.546875 -20.796875 L 8.546875 -18.359375 C 9.335938 -19.234375 10.328125 -19.910156 11.515625 -20.390625 C 12.703125 -20.867188 14.003906 -21.109375 15.421875 -21.109375 Z M 15.421875 -21.109375 "/></g></g></g><g fill="#000000" fill-opacity="1"><g transform="translate(133.450652, 186.91237)"><g><path d="M 16.203125 -1 C 15.609375 -0.5625 14.878906 -0.234375 14.015625 -0.015625 C 13.148438 0.203125 12.238281 0.3125 11.28125 0.3125 C 8.8125 0.3125 6.898438 -0.316406 5.546875 -1.578125 C 4.191406 -2.847656 3.515625 -4.707031 3.515625 -7.15625 L 3.515625 -15.6875 L 0.3125 -15.6875 L 0.3125 -20.328125 L 3.515625 -20.328125 L 3.515625 -25.390625 L 9.546875 -25.390625 L 9.546875 -20.328125 L 14.734375 -20.328125 L 14.734375 -15.6875 L 9.546875 -15.6875 L 9.546875 -7.234375 C 9.546875 -6.359375 9.769531 -5.679688 10.21875 -5.203125 C 10.675781 -4.722656 11.316406 -4.484375 12.140625 -4.484375 C 13.085938 -4.484375 13.898438 -4.738281 14.578125 -5.25 Z M 16.203125 -1 "/></g></g></g><g fill="#000000" fill-opacity="1"><g transform="translate(152.082062, 186.91237)"><g><path d="M 23.15625 -10.328125 C 23.15625 -10.242188 23.117188 -9.703125 23.046875 -8.703125 L 7.3125 -8.703125 C 7.59375 -7.410156 8.257812 -6.390625 9.3125 -5.640625 C 10.375 -4.890625 11.691406 -4.515625 13.265625 -4.515625 C 14.335938 -4.515625 15.289062 -4.675781 16.125 -5 C 16.96875 -5.320312 17.753906 -5.832031 18.484375 -6.53125 L 21.6875 -3.046875 C 19.726562 -0.804688 16.867188 0.3125 13.109375 0.3125 C 10.765625 0.3125 8.6875 -0.144531 6.875 -1.0625 C 5.070312 -1.976562 3.679688 -3.25 2.703125 -4.875 C 1.722656 -6.5 1.234375 -8.34375 1.234375 -10.40625 C 1.234375 -12.4375 1.71875 -14.269531 2.6875 -15.90625 C 3.65625 -17.539062 4.984375 -18.816406 6.671875 -19.734375 C 8.359375 -20.648438 10.242188 -21.109375 12.328125 -21.109375 C 14.367188 -21.109375 16.210938 -20.671875 17.859375 -19.796875 C 19.503906 -18.921875 20.796875 -17.660156 21.734375 -16.015625 C 22.679688 -14.378906 23.15625 -12.484375 23.15625 -10.328125 Z M 12.375 -16.546875 C 11.007812 -16.546875 9.859375 -16.15625 8.921875 -15.375 C 7.992188 -14.601562 7.429688 -13.550781 7.234375 -12.21875 L 17.46875 -12.21875 C 17.257812 -13.53125 16.691406 -14.578125 15.765625 -15.359375 C 14.835938 -16.148438 13.707031 -16.546875 12.375 -16.546875 Z M 12.375 -16.546875 "/></g></g></g><g fill="#000000" fill-opacity="1"><g transform="translate(178.289464, 186.91237)"><g><path d="M 24.234375 -20.796875 L 24.234375 -3.484375 C 24.234375 0.328125 23.238281 3.160156 21.25 5.015625 C 19.269531 6.878906 16.375 7.8125 12.5625 7.8125 C 10.550781 7.8125 8.644531 7.566406 6.84375 7.078125 C 5.039062 6.585938 3.546875 5.878906 2.359375 4.953125 L 4.75 0.625 C 5.625 1.34375 6.734375 1.910156 8.078125 2.328125 C 9.421875 2.753906 10.757812 2.96875 12.09375 2.96875 C 14.1875 2.96875 15.726562 2.5 16.71875 1.5625 C 17.707031 0.625 18.203125 -0.796875 18.203125 -2.703125 L 18.203125 -3.59375 C 16.628906 -1.863281 14.441406 -1 11.640625 -1 C 9.734375 -1 7.984375 -1.414062 6.390625 -2.25 C 4.804688 -3.09375 3.550781 -4.273438 2.625 -5.796875 C 1.695312 -7.316406 1.234375 -9.070312 1.234375 -11.0625 C 1.234375 -13.039062 1.695312 -14.789062 2.625 -16.3125 C 3.550781 -17.832031 4.804688 -19.007812 6.390625 -19.84375 C 7.984375 -20.6875 9.734375 -21.109375 11.640625 -21.109375 C 14.648438 -21.109375 16.941406 -20.113281 18.515625 -18.125 L 18.515625 -20.796875 Z M 12.828125 -5.953125 C 14.429688 -5.953125 15.738281 -6.421875 16.75 -7.359375 C 17.769531 -8.304688 18.28125 -9.539062 18.28125 -11.0625 C 18.28125 -12.582031 17.769531 -13.8125 16.75 -14.75 C 15.738281 -15.6875 14.429688 -16.15625 12.828125 -16.15625 C 11.234375 -16.15625 9.921875 -15.6875 8.890625 -14.75 C 7.859375 -13.8125 7.34375 -12.582031 7.34375 -11.0625 C 7.34375 -9.539062 7.859375 -8.304688 8.890625 -7.359375 C 9.921875 -6.421875 11.234375 -5.953125 12.828125 -5.953125 Z M 12.828125 -5.953125 "/></g></g></g><g fill="#000000" fill-opacity="1"><g transform="translate(207.163933, 186.91237)"><g><path d="M 8.546875 -18.046875 C 9.265625 -19.054688 10.234375 -19.816406 11.453125 -20.328125 C 12.679688 -20.847656 14.09375 -21.109375 15.6875 -21.109375 L 15.6875 -15.546875 C 15.019531 -15.585938 14.570312 -15.609375 14.34375 -15.609375 C 12.613281 -15.609375 11.257812 -15.125 10.28125 -14.15625 C 9.300781 -13.195312 8.8125 -11.75 8.8125 -9.8125 L 8.8125 0 L 2.78125 0 L 2.78125 -20.796875 L 8.546875 -20.796875 Z M 8.546875 -18.046875 "/></g></g></g><g fill="#000000" fill-opacity="1"><g transform="translate(225.640727, 186.91237)"><g><path d="M 11.171875 -21.109375 C 14.390625 -21.109375 16.863281 -20.335938 18.59375 -18.796875 C 20.320312 -17.265625 21.1875 -14.957031 21.1875 -11.875 L 21.1875 0 L 15.546875 0 L 15.546875 -2.59375 C 14.410156 -0.65625 12.296875 0.3125 9.203125 0.3125 C 7.597656 0.3125 6.207031 0.0390625 5.03125 -0.5 C 3.863281 -1.039062 2.972656 -1.785156 2.359375 -2.734375 C 1.742188 -3.691406 1.4375 -4.773438 1.4375 -5.984375 C 1.4375 -7.921875 2.160156 -9.441406 3.609375 -10.546875 C 5.066406 -11.660156 7.316406 -12.21875 10.359375 -12.21875 L 15.15625 -12.21875 C 15.15625 -13.53125 14.753906 -14.539062 13.953125 -15.25 C 13.148438 -15.957031 11.953125 -16.3125 10.359375 -16.3125 C 9.253906 -16.3125 8.164062 -16.132812 7.09375 -15.78125 C 6.019531 -15.4375 5.113281 -14.96875 4.375 -14.375 L 2.203125 -18.59375 C 3.335938 -19.394531 4.695312 -20.015625 6.28125 -20.453125 C 7.863281 -20.890625 9.492188 -21.109375 11.171875 -21.109375 Z M 10.703125 -3.75 C 11.734375 -3.75 12.648438 -3.988281 13.453125 -4.46875 C 14.253906 -4.945312 14.820312 -5.648438 15.15625 -6.578125 L 15.15625 -8.703125 L 11.015625 -8.703125 C 8.546875 -8.703125 7.3125 -7.890625 7.3125 -6.265625 C 7.3125 -5.492188 7.613281 -4.878906 8.21875 -4.421875 C 8.820312 -3.972656 9.648438 -3.75 10.703125 -3.75 Z M 10.703125 -3.75 "/></g></g></g><g fill="#000000" fill-opacity="1"><g transform="translate(251.306988, 186.91237)"><g><path d="M 16.203125 -1 C 15.609375 -0.5625 14.878906 -0.234375 14.015625 -0.015625 C 13.148438 0.203125 12.238281 0.3125 11.28125 0.3125 C 8.8125 0.3125 6.898438 -0.316406 5.546875 -1.578125 C 4.191406 -2.847656 3.515625 -4.707031 3.515625 -7.15625 L 3.515625 -15.6875 L 0.3125 -15.6875 L 0.3125 -20.328125 L 3.515625 -20.328125 L 3.515625 -25.390625 L 9.546875 -25.390625 L 9.546875 -20.328125 L 14.734375 -20.328125 L 14.734375 -15.6875 L 9.546875 -15.6875 L 9.546875 -7.234375 C 9.546875 -6.359375 9.769531 -5.679688 10.21875 -5.203125 C 10.675781 -4.722656 11.316406 -4.484375 12.140625 -4.484375 C 13.085938 -4.484375 13.898438 -4.738281 14.578125 -5.25 Z M 16.203125 -1 "/></g></g></g><g fill="#000000" fill-opacity="1"><g transform="translate(269.938392, 186.91237)"><g><path d="M 12.671875 0.3125 C 10.484375 0.3125 8.519531 -0.144531 6.78125 -1.0625 C 5.039062 -1.976562 3.679688 -3.25 2.703125 -4.875 C 1.722656 -6.5 1.234375 -8.34375 1.234375 -10.40625 C 1.234375 -12.457031 1.722656 -14.296875 2.703125 -15.921875 C 3.679688 -17.546875 5.039062 -18.816406 6.78125 -19.734375 C 8.519531 -20.648438 10.484375 -21.109375 12.671875 -21.109375 C 14.867188 -21.109375 16.828125 -20.648438 18.546875 -19.734375 C 20.273438 -18.816406 21.628906 -17.546875 22.609375 -15.921875 C 23.585938 -14.296875 24.078125 -12.457031 24.078125 -10.40625 C 24.078125 -8.34375 23.585938 -6.5 22.609375 -4.875 C 21.628906 -3.25 20.273438 -1.976562 18.546875 -1.0625 C 16.828125 -0.144531 14.867188 0.3125 12.671875 0.3125 Z M 12.671875 -4.640625 C 14.222656 -4.640625 15.492188 -5.160156 16.484375 -6.203125 C 17.472656 -7.242188 17.96875 -8.644531 17.96875 -10.40625 C 17.96875 -12.15625 17.472656 -13.550781 16.484375 -14.59375 C 15.492188 -15.632812 14.222656 -16.15625 12.671875 -16.15625 C 11.128906 -16.15625 9.851562 -15.632812 8.84375 -14.59375 C 7.84375 -13.550781 7.34375 -12.15625 7.34375 -10.40625 C 7.34375 -8.644531 7.84375 -7.242188 8.84375 -6.203125 C 9.851562 -5.160156 11.128906 -4.640625 12.671875 -4.640625 Z M 12.671875 -4.640625 "/></g></g></g><g fill="#000000" fill-opacity="1"><g transform="translate(297.073477, 186.91237)"><g><path d="M 8.546875 -18.046875 C 9.265625 -19.054688 10.234375 -19.816406 11.453125 -20.328125 C 12.679688 -20.847656 14.09375 -21.109375 15.6875 -21.109375 L 15.6875 -15.546875 C 15.019531 -15.585938 14.570312 -15.609375 14.34375 -15.609375 C 12.613281 -15.609375 11.257812 -15.125 10.28125 -14.15625 C 9.300781 -13.195312 8.8125 -11.75 8.8125 -9.8125 L 8.8125 0 L 2.78125 0 L 2.78125 -20.796875 L 8.546875 -20.796875 Z M 8.546875 -18.046875 "/></g></g></g><g fill="#000000" fill-opacity="1"><g transform="translate(315.550272, 186.91237)"><g><path d="M 19.90625 -4.640625 L 19.90625 0 L 1.359375 0 L 1.359375 -3.640625 L 11.9375 -16.15625 L 1.625 -16.15625 L 1.625 -20.796875 L 19.5625 -20.796875 L 19.5625 -17.15625 L 8.96875 -4.640625 Z M 19.90625 -4.640625 "/></g></g></g></svg>